<svg style="display:none">
    <symbol id="User" xmlns="http://www.w3.org/2000/svg" width="24" height="24" viewBox="0 0 24 24" fill="none" stroke="currentColor" stroke-width="2" stroke-linecap="round" stroke-linejoin="round"><path d="M19 21v-2a4 4 0 0 0-4-4H9a4 4 0 0 0-4 4v2"></path><circle cx="12" cy="7" r="4"></circle></symbol>
    <symbol id="Minicart" xmlns="http://www.w3.org/2000/svg" width="24" height="24" viewBox="0 0 24 24" fill="none" stroke="currentColor" stroke-width="2" stroke-linecap="round" stroke-linejoin="round"><circle cx="8" cy="21" r="1"></circle><circle cx="19" cy="21" r="1"></circle><path d="M2.05 2.05h2l2.66 12.42a2 2 0 0 0 2 1.58h9.78a2 2 0 0 0 1.95-1.57l1.65-7.43H5.12"></path></symbol>
    <symbol id="Hamburger" xmlns="http://www.w3.org/2000/svg" width="24" height="24" viewBox="0 0 24 24" fill="none" stroke="currentColor" stroke-width="2" stroke-linecap="round" stroke-linejoin="round"><line x1="4" y1="12" x2="20" y2="12"></line><line x1="4" y1="6" x2="20" y2="6"></line><line x1="4" y1="18" x2="20" y2="18"></line></symbol>
    <symbol id="Instagram" xmlns="http://www.w3.org/2000/svg" width="24" height="24" viewBox="0 0 24 24" fill="none" stroke="currentColor" stroke-width="2" stroke-linecap="round" stroke-linejoin="round"><rect x="2" y="2" width="20" height="20" rx="5" ry="5"></rect><path d="M16 11.37A4 4 0 1 1 12.63 8 4 4 0 0 1 16 11.37z"></path><line x1="17.5" y1="6.5" x2="17.51" y2="6.5"></line></symbol>
    <symbol id="Facebook" xmlns="http://www.w3.org/2000/svg" width="24" height="24" viewBox="0 0 24 24" fill="currentColor"><path d="M18 2H15C13.6739 2 12.4021 2.52678 11.4645 3.46447C10.5268 4.40215 10 5.67392 10 7V10H7V14H10V22H14V14H17L18 10H14V7C14 6.73478 14.1054 6.48043 14.2929 6.29289C14.4804 6.10536 14.7348 6 15 6H18V2Z" fill="currentColor" stroke="currentColor" stroke-width="2" stroke-linecap="round" stroke-linejoin="round"/></symbol>
    <symbol id="Twitter" xmlns="http://www.w3.org/2000/svg" width="24" height="24" viewBox="0 0 24 24" fill="currentColor" stroke="currentColor"><path d="M22 4.00001C22 4.00001 21.3 6.10001 20 7.40001C21.6 17.4 10.6 24.7 2 19C4.2 19.1 6.4 18.4 8 17C3 15.5 0.5 9.60001 3 5.00001C5.2 7.60001 8.6 9.10001 12 9.00001C11.1 4.80001 16 2.40001 19 5.20001C20.1 5.20001 22 4.00001 22 4.00001Z" fill="currentColor" stroke="currentColor" stroke-width="2" stroke-linecap="round" stroke-linejoin="round"/></symbol>
    <symbol id="Vsco" xmlns="http://www.w3.org/2000/svg" width="24" height="24" viewBox="0 0 24 24" fill="none"><g clip-path="url(#clip)"><path d="M12 0C9.62663 0 7.30655 0.703788 5.33316 2.02236C3.35977 3.34094 1.8217 5.21508 0.913451 7.4078C0.00519939 9.60051 -0.232441 12.0133 0.230582 14.3411C0.693605 16.6689 1.83649 18.807 3.51472 20.4853C5.19295 22.1635 7.33115 23.3064 9.65892 23.7694C11.9867 24.2324 14.3995 23.9948 16.5922 23.0865C18.7849 22.1783 20.6591 20.6402 21.9776 18.6668C23.2962 16.6934 24 14.3734 24 12C23.9962 8.81857 22.7307 5.76854 20.4811 3.51893C18.2315 1.26932 15.1814 0.00381086 12 0ZM23.52 12C23.5201 12.3944 23.5 12.7885 23.46 13.1808L21.4224 12.9408C21.4512 12.636 21.468 12.324 21.468 12.012C21.468 11.7 21.4536 11.424 21.4248 11.1336L23.4624 10.8936C23.52 11.2488 23.52 11.6208 23.52 12ZM0.480005 12C0.479789 11.6121 0.499013 11.2244 0.537605 10.8384L2.5752 11.0784C2.5464 11.3784 2.5296 11.6832 2.5296 11.9904C2.5296 12.2976 2.5464 12.6024 2.5752 12.9024L0.537605 13.1424C0.499205 12.7712 0.480005 12.3904 0.480005 12ZM20.952 8.8968L22.872 8.1768C23.1276 8.90225 23.3093 9.65165 23.4144 10.4136L21.3768 10.6536C21.292 10.0557 21.1497 9.46738 20.952 8.8968ZM21.0072 12C21.0069 12.5882 20.949 13.175 20.8344 13.752L18.816 13.2864C18.9843 12.4193 18.9843 11.5279 18.816 10.6608L20.8368 10.2048C20.9535 10.796 21.0105 11.3974 21.0072 12ZM12 18.4656C10.7212 18.4656 9.47117 18.0864 8.40791 17.3759C7.34465 16.6655 6.51593 15.6557 6.02657 14.4743C5.5372 13.2928 5.40916 11.9928 5.65864 10.7386C5.90812 9.48442 6.5239 8.33236 7.42813 7.42813C8.33236 6.5239 9.48442 5.90811 10.7386 5.65863C11.9928 5.40916 13.2928 5.5372 14.4743 6.02656C15.6557 6.51593 16.6655 7.34464 17.376 8.4079C18.0864 9.47117 18.4656 10.7212 18.4656 12C18.4618 13.7136 17.7794 15.356 16.5677 16.5677C15.356 17.7794 13.7136 18.4618 12 18.4656ZM12.2184 21V18.9288C13.1075 18.9011 13.9828 18.7014 14.796 18.3408L15.6912 20.208C14.5986 20.703 13.4176 20.9731 12.2184 21.0024V21ZM8.2776 20.1984L9.1776 18.3336C9.9916 18.6981 10.8686 18.9011 11.76 18.9312V21C10.5571 20.9697 9.37267 20.6971 8.2776 20.1984ZM2.9928 12C2.99224 11.3873 3.05416 10.7761 3.1776 10.176L5.196 10.6392C5.02234 11.5052 5.01664 12.3966 5.1792 13.2648L3.1584 13.7232C3.04804 13.1554 2.99258 12.5784 2.9928 12ZM11.76 3V5.0712C10.8839 5.09972 10.0212 5.29522 9.2184 5.6472L8.3208 3.7824C9.40391 3.29592 10.573 3.02995 11.76 3ZM15.7032 3.792L14.7984 5.6544C13.991 5.29703 13.1225 5.09822 12.24 5.0688V3C13.4357 3.02979 14.6134 3.2991 15.7032 3.792ZM20.7888 8.4576C20.5622 7.89775 20.2826 7.3609 19.9536 6.8544L21.6336 5.6928C22.0562 6.33624 22.4132 7.02046 22.6992 7.7352L20.7888 8.4576ZM20.724 9.7488L18.7008 10.2048C18.473 9.3553 18.0853 8.55704 17.5584 7.8528L19.1808 6.5688C19.9 7.51627 20.4237 8.5972 20.7216 9.7488H20.724ZM17.2608 7.4856C16.6892 6.81977 15.9971 6.26772 15.2208 5.8584L16.1256 3.996C17.1801 4.54186 18.1171 5.28962 18.8832 6.1968L17.2608 7.4856ZM16.6584 3.7512L17.6184 1.9368C18.2904 2.31365 18.9232 2.75665 19.5072 3.2592L18.1416 4.8C17.6818 4.40392 17.1851 4.05273 16.6584 3.7512ZM16.2432 3.5304C15.7055 3.25871 15.1429 3.0393 14.5632 2.8752L15.06 0.8832C15.8063 1.08709 16.53 1.36611 17.22 1.716L16.2432 3.5304ZM14.0952 2.76C13.4949 2.62059 12.8824 2.54021 12.2664 2.52V0.48C13.0494 0.496601 13.8286 0.593101 14.592 0.768L14.0952 2.76ZM11.796 2.52C11.189 2.53236 10.5846 2.60308 9.9912 2.7312L9.5112 0.7392C10.263 0.576657 11.0293 0.489824 11.7984 0.48L11.796 2.52ZM9.5328 2.8416C8.94542 2.99961 8.37475 3.21422 7.8288 3.4824L6.8784 1.68C7.56896 1.33504 8.29264 1.06085 9.0384 0.8616L9.5328 2.8416ZM7.4136 3.7008C6.88177 3.99607 6.37947 4.34165 5.9136 4.7328L4.56 3.2064C5.14965 2.70541 5.78804 2.26481 6.4656 1.8912L7.4136 3.7008ZM7.8936 3.9744L8.7912 5.8392C8.01384 6.24588 7.32013 6.79548 6.7464 7.4592L5.1288 6.168C5.90147 5.26514 6.84416 4.52306 7.9032 3.984L7.8936 3.9744ZM4.8408 6.5424L6.4584 7.8336C5.92867 8.53564 5.53769 9.33227 5.3064 10.1808L3.2856 9.7176C3.58843 8.56658 4.11707 7.48726 4.8408 6.5424ZM3.2304 8.4L1.31041 7.68C1.60382 6.96268 1.96887 6.27681 2.4 5.6328L4.08 6.7992C3.74623 7.30438 3.46173 7.84044 3.2304 8.4ZM3.0624 8.8392C2.85903 9.41317 2.71194 10.0056 2.62321 10.608L0.588005 10.368C0.696812 9.60066 0.883372 8.84638 1.14481 8.1168L3.0624 8.8392ZM2.62321 13.3776C2.71193 13.98 2.85902 14.5724 3.0624 15.1464L1.14241 15.8664C0.881946 15.1375 0.696193 14.384 0.588005 13.6176L2.62321 13.3776ZM3.228 15.588C3.45954 16.151 3.74486 16.6903 4.08 17.1984L2.4 18.3624C1.96915 17.7199 1.60411 17.0357 1.31041 16.32L3.228 15.588ZM3.2592 14.1816L5.28 13.7232C5.50091 14.5811 5.88467 15.3886 6.4104 16.1016L4.8 17.3904C4.0782 16.4342 3.55512 15.3431 3.2616 14.1816H3.2592ZM6.6984 16.4712C7.27079 17.1494 7.96722 17.7122 8.7504 18.1296L7.8528 19.992C6.7904 19.4385 5.84824 18.6799 5.0808 17.76L6.6984 16.4712ZM7.404 20.2872L6.444 22.104C5.77394 21.7292 5.14283 21.2886 4.56 20.7888L5.9208 19.2552C6.38287 19.6457 6.88113 19.9913 7.4088 20.2872H7.404ZM7.8216 20.5056C8.36601 20.7735 8.93506 20.9881 9.5208 21.1464L9.0264 23.1384C8.28064 22.9391 7.55696 22.665 6.8664 22.32L7.8216 20.5056ZM9.9816 21.2592C10.5742 21.388 11.1777 21.4595 11.784 21.4728V23.52C11.0128 23.5058 10.2449 23.4141 9.492 23.2464L9.9816 21.2592ZM12.2544 21.4704C12.8601 21.4546 13.4629 21.3807 14.0544 21.2496L14.5344 23.2416C13.7809 23.4111 13.0122 23.5043 12.24 23.52L12.2544 21.4704ZM14.5104 21.1368C15.0939 20.9765 15.6605 20.7603 16.2024 20.4912L17.1624 22.308C16.472 22.6546 15.7483 22.9304 15.0024 23.1312L14.5104 21.1368ZM16.6176 20.2704C17.1452 19.9752 17.6434 19.6305 18.1056 19.2408L19.4616 20.7792C18.8758 21.2744 18.2423 21.7101 17.5704 22.08L16.6176 20.2704ZM16.116 20.004L15.2208 18.1368C16.0058 17.7231 16.7047 17.1635 17.28 16.488L18.8952 17.7816C18.1257 18.6994 17.1819 19.4556 16.1184 20.0064L16.116 20.004ZM19.2 17.4144L17.5848 16.1208C18.1116 15.4095 18.497 14.6038 18.72 13.7472L20.7384 14.2128C20.444 15.3718 19.9209 16.4603 19.2 17.4144ZM20.7696 15.6L22.6896 16.32C22.3956 17.034 22.0306 17.7166 21.6 18.3576L19.92 17.1888C20.2531 16.6874 20.5376 16.1554 20.7696 15.6ZM20.9376 15.1608C21.1393 14.5914 21.2855 14.0039 21.3744 13.4064L23.4096 13.6464C23.3005 14.408 23.1147 15.1566 22.8552 15.8808L20.9376 15.1608ZM21.3768 5.3208L19.6968 6.4824C19.3409 5.99175 18.9391 5.5361 18.4968 5.1216L19.86 3.5904C20.4208 4.11029 20.9288 4.68428 21.3768 5.304V5.3208ZM4.2024 3.516L5.5632 5.052C5.12094 5.46651 4.71913 5.92216 4.3632 6.4128L2.68321 5.2464C3.13108 4.62074 3.63998 4.04109 4.2024 3.516ZM2.6592 18.7488L4.3392 17.5848C4.69525 18.0746 5.09706 18.5294 5.5392 18.9432L4.176 20.4768C3.61454 19.9523 3.10645 19.3735 2.6592 18.7488ZM19.8144 20.4672L18.456 18.9288C18.8979 18.5166 19.2997 18.0633 19.656 17.5752L21.336 18.744C20.8877 19.3672 20.3789 19.9444 19.8168 20.4672H19.8144Z" fill="currentColor"/></g><defs><clipPath id="clip"><rect width="24" height="24" fill="none"/></clipPath></defs></symbol>
    <symbol id="Whatsapp" xmlns="http://www.w3.org/2000/svg" width="24" height="24" viewBox="0 0 24 24" fill="none"><g filter="url(#filter0_d_2_9)"><mask id="path-1-inside-1_2_9" fill="currentColor"><path fill-rule="evenodd" clip-rule="evenodd" d="M19.5611 19.0792C16.2813 22.2542 11.4426 22.8268 7.60066 20.8384L1.20135 22.4423L3.012 16.0984C1.14933 12.194 1.87861 7.3764 5.15836 4.20137C9.26675 0.224165 15.8214 0.330507 19.7986 4.4389C23.7758 8.54728 23.6695 15.102 19.5611 19.0792Z"/></mask><path d="M7.60066 20.8384L8.06029 19.9503L7.7244 19.7765L7.35754 19.8684L7.60066 20.8384ZM1.20135 22.4423L0.239752 22.1679L-0.235616 23.8334L1.44447 23.4123L1.20135 22.4423ZM3.012 16.0984L3.9736 16.3729L4.0774 16.0092L3.91455 15.6678L3.012 16.0984ZM7.14102 21.7265C11.3529 23.9064 16.659 23.2804 20.2567 19.7977L18.8656 18.3607C15.9037 21.228 11.5322 21.7472 8.06029 19.9503L7.14102 21.7265ZM1.44447 23.4123L7.84377 21.8084L7.35754 19.8684L0.958236 21.4723L1.44447 23.4123ZM2.0504 15.824L0.239752 22.1679L2.16295 22.7168L3.9736 16.3729L2.0504 15.824ZM4.46282 3.48289C0.865186 6.96565 0.0674031 12.2486 2.10945 16.529L3.91455 15.6678C2.23127 12.1395 2.89204 7.78715 5.85391 4.91986L4.46282 3.48289ZM20.5171 3.74335C16.1558 -0.761844 8.96802 -0.878457 4.46282 3.48289L5.85391 4.91986C9.56549 1.32679 15.4871 1.42286 19.0801 5.13444L20.5171 3.74335ZM20.2567 19.7977C24.7619 15.4363 24.8785 8.24855 20.5171 3.74335L19.0801 5.13444C22.6732 8.84602 22.5771 14.7676 18.8656 18.3607L20.2567 19.7977Z" fill="currentColor" mask="url(#path-1-inside-1_2_9)"/><path d="M16.0012 13.1673V14.3363C16.0016 14.4448 15.9793 14.5522 15.9358 14.6517C15.8922 14.7511 15.8283 14.8404 15.7482 14.9137C15.6681 14.9871 15.5735 15.0429 15.4705 15.0777C15.3675 15.1125 15.2583 15.1254 15.15 15.1156C13.9486 14.9853 12.7945 14.5756 11.7806 13.9194C10.8372 13.3211 10.0374 12.5229 9.438 11.5814C8.77816 10.5649 8.36753 9.40752 8.23938 8.20309C8.22962 8.09533 8.24245 7.98673 8.27705 7.8842C8.31165 7.78167 8.36727 7.68745 8.44036 7.60754C8.51344 7.52763 8.6024 7.46379 8.70156 7.42008C8.80073 7.37636 8.90793 7.35373 9.01633 7.35363H10.1876C10.3771 7.35177 10.5608 7.41873 10.7045 7.54204C10.8481 7.66535 10.942 7.83659 10.9685 8.02384C11.0179 8.39794 11.1096 8.76526 11.2418 9.11878C11.2943 9.25825 11.3057 9.40982 11.2746 9.55554C11.2434 9.70126 11.1711 9.83502 11.0661 9.94096L10.5703 10.4358C11.1261 11.4114 11.9354 12.2191 12.9128 12.7738L13.4087 12.2789C13.5148 12.1741 13.6489 12.1019 13.7949 12.0709C13.9409 12.0398 14.0928 12.0511 14.2325 12.1036C14.5867 12.2355 14.9548 12.327 15.3296 12.3763C15.5193 12.403 15.6925 12.4984 15.8163 12.6442C15.9401 12.7901 16.0059 12.9762 16.0012 13.1673Z" stroke="currentColor" stroke-linecap="round" stroke-linejoin="round"/></g><defs><filter id="filter0_d_2_9" x="-2.79865" y="1.28667" width="29.512" height="29.1557" filterUnits="userSpaceOnUse" color-interpolation-filters="sRGB"><feFlood flood-opacity="0" result="BackgroundImageFix"/><feColorMatrix in="SourceAlpha" type="matrix" values="0 0 0 0 0 0 0 0 0 0 0 0 0 0 0 0 0 0 127 0" result="hardAlpha"/><feOffset dy="4"/><feGaussianBlur stdDeviation="2"/><feComposite in2="hardAlpha" operator="out"/><feColorMatrix type="matrix" values="0 0 0 0 0 0 0 0 0 0 0 0 0 0 0 0 0 0 0.25 0"/><feBlend mode="normal" in2="BackgroundImageFix" result="effect1_dropShadow_2_9"/><feBlend mode="normal" in="SourceGraphic" in2="effect1_dropShadow_2_9" result="shape"/></filter></defs></symbol>
    <symbol id="Visa" xmlns="http://www.w3.org/2000/svg" width="38" height="24" viewBox="0 0 38 24"><path opacity=".07" enable-background="new" d="M35 0h-32c-1.7 0-3 1.3-3 3v18c0 1.7 1.4 3 3 3h32c1.7 0 3-1.3 3-3v-18c0-1.7-1.4-3-3-3z"/><path fill="#fff" d="M35 1c1.1 0 2 .9 2 2v18c0 1.1-.9 2-2 2h-32c-1.1 0-2-.9-2-2v-18c0-1.1.9-2 2-2h32"/><g fill="#142688"><path d="M28.3 10.1h-.3c-.4 1-.7 1.5-1 3h1.9c-.3-1.5-.3-2.2-.6-3zm2.9 5.9h-1.7000000000000002c-.1 0-.1 0-.2-.1l-.2-.9-.1-.2h-2.4c-.1 0-.2 0-.2.2l-.3.9c0 .1-.1.1-.1.1h-2.1l.2-.5 2.9-6.8c0-.5.3-.7.8-.7h1.5c.1 0 .2 0 .2.2l1.4 6.5c.1.4.2.7.2 1.1.1.1.1.1.1.2zM17.8 15.7l.4-1.8c.1 0 .2.1.2.1.7.3 1.4.5 2.1.4.2 0 .5-.1.7-.2.5-.2.5-.7.1-1.1-.2-.2-.5-.3-.8-.5-.4-.2-.8-.4-1.1-.7-1.2-1-.8-2.4-.1-3.1.6-.4.9-.8 1.7-.8 1.2 0 2.5 0 3.1.2h.1c-.1.6-.2 1.1-.4 1.7-.5-.2-1-.4-1.5-.4-.3 0-.6 0-.9.1-.2 0-.3.1-.4.2-.2.2-.2.5 0 .7l.5.4c.4.2.8.4 1.1.6.5.3 1 .8 1.1 1.4.2.9-.1 1.7-.9 2.3-.5.4-.7.6-1.4.6-1.4 0-2.5.1-3.4-.2-.1.2-.1.2-.2.1zM14.3 16c.1-.7.1-.7.2-1 .5-2.2 1-4.5 1.4-6.7.1-.2.1-.3.3-.3h1.8c-.2 1.2-.4 2.1-.7 3.2-.3 1.5-.6 3-1 4.5 0 .2-.1.2-.3.2"/><path d="M5 8.2c0-.1.2-.2.3-.2h3.4c.5 0 .9.3 1 .8l.9 4.4c0 .1 0 .1.1.2 0-.1.1-.1.1-.1l2.1-5.1c-.1-.1 0-.2.1-.2h2.1c0 .1 0 .1-.1.2l-3.1 7.3c-.1.2-.1.3-.2.4-.1.1-.3 0-.5 0h-1.5c-.1 0-.2 0-.2-.2l-1.6-6.2c-.2-.2-.5-.5-.9-.6-.6-.3-1.7-.5-1.9-.5l-.1-.2z"/></g></symbol>
    <symbol xmlns="http://www.w3.org/2000/svg" width="38" height="24" viewBox="0 0 38 24"><path opacity=".07" enable-background="new" d="M35 0h-32c-1.7 0-3 1.3-3 3v18c0 1.7 1.4 3 3 3h32c1.7 0 3-1.3 3-3v-18c0-1.7-1.4-3-3-3z"/><path fill="#fff" d="M35 1c1.1 0 2 .9 2 2v18c0 1.1-.9 2-2 2h-32c-1.1 0-2-.9-2-2v-18c0-1.1.9-2 2-2h32"/><circle fill="#CE4549" cx="15" cy="12" r="7"/><circle fill="#FFAA2E" cx="23" cy="12" r="7"/><path fill="#f73" d="M22 12c0-2.4-1.2-4.5-3-5.7-1.8 1.3-3 3.4-3 5.7s1.2 4.5 3 5.7c1.8-1.2 3-3.3 3-5.7z"/><path fill="#fff" d="M12 11h14v2h-14z"/></symbol>
    <symbol id="SecurityBadge xmlns="http://www.w3.org/2000/svg"" width="160" height="46" viewBox="0 0 160 46" fill="none"><rect width="160" height="45.0002" transform="translate(0 0.0078125)" fill="#B92C38"/><path d="M0 4.96937V9.43905C0 21.8619 0.0223932 30.4411 6.89279 37.664C9.53919 40.4474 16 45.008 16 45.008V0.826172C9.28 0.826172 2.56 3.98322 0 4.96937Z" fill="#C0BFD6"/><path d="M32.8 4.91247C29.44 3.86902 23.056 0.826172 16 0.826172V45.008C16 45.008 22.8141 40.4505 25.5962 37.6634C32.8235 30.4232 32.8 22.8195 32.8 11.0958V4.91247Z" fill="#9499B3"/><path d="M32.7967 6.55327V3.03939C32.7967 1.77509 31.1337 0.0078125 29.6479 0.0078125H2.87326C1.3907 0.0078125 0 1.77509 0 3.03939V6.55327H32.8H32.7967Z" fill="#F5F5FB"/><path d="M42.9921 37.4758C43.6761 37.4758 44.2479 37.2817 44.7075 36.8935C45.1726 36.4997 45.4243 35.9923 45.4626 35.3711H46.4065C46.3791 35.9202 46.2095 36.4221 45.8976 36.8769C45.5857 37.3261 45.1699 37.6783 44.6501 37.9334C44.1357 38.1885 43.5831 38.3161 42.9921 38.3161C41.8266 38.3161 40.9019 37.9057 40.2179 37.0849C39.5394 36.264 39.2002 35.1604 39.2002 33.7739V33.4744C39.2002 32.587 39.3534 31.8022 39.6598 31.1201C39.9662 30.4379 40.404 29.911 40.973 29.5394C41.5476 29.1679 42.2179 28.9821 42.9839 28.9821C43.9579 28.9821 44.7595 29.276 45.3888 29.8639C46.0235 30.4518 46.3627 31.2254 46.4065 32.1849H45.4626C45.4188 31.4806 45.1671 30.9121 44.7075 30.4795C44.2534 30.0469 43.6788 29.8306 42.9839 29.8306C42.0975 29.8306 41.408 30.1551 40.9156 30.8039C40.4286 31.4528 40.1851 32.3624 40.1851 33.5326V33.8238C40.1851 34.9718 40.4286 35.8675 40.9156 36.5108C41.408 37.1542 42.1002 37.4758 42.9921 37.4758Z" fill="white"/><path d="M49.353 30.6708C49.6759 30.1329 50.089 29.7169 50.5924 29.423C51.0958 29.129 51.6457 28.9821 52.2421 28.9821C53.1942 28.9821 53.9028 29.2538 54.3679 29.7973C54.833 30.3408 55.0683 31.1561 55.0738 32.2431V38.1497H54.0971V32.2348C54.0916 31.4306 53.922 30.8317 53.5882 30.4379C53.2599 30.0441 52.7319 29.8472 52.0041 29.8472C51.3967 29.8472 50.8578 30.0414 50.3872 30.4296C49.9221 30.8123 49.5774 31.3308 49.353 31.9853V38.1497H48.3763V25.3716H49.353V30.6708Z" fill="white"/><path d="M61.0407 38.3161C60.2856 38.3161 59.6016 38.1275 58.9888 37.7504C58.3814 37.3732 57.9081 36.8491 57.5689 36.1781C57.2296 35.5015 57.06 34.7444 57.06 33.907V33.5492C57.06 32.6841 57.2242 31.9048 57.5525 31.2116C57.8862 30.5183 58.3486 29.9748 58.9396 29.581C59.5305 29.1817 60.1707 28.9821 60.8601 28.9821C61.9381 28.9821 62.7917 29.3564 63.4209 30.1051C64.0557 30.8483 64.373 31.866 64.373 33.1582V33.7156H58.0367V33.907C58.0367 34.9274 58.324 35.7788 58.8985 36.4609C59.4785 37.1375 60.2063 37.4758 61.0818 37.4758C61.607 37.4758 62.0694 37.3788 62.4688 37.1847C62.8738 36.9906 63.2404 36.68 63.5687 36.2529L64.1842 36.7271C63.462 37.7864 62.4141 38.3161 61.0407 38.3161ZM60.8601 29.8306C60.1215 29.8306 59.4977 30.1051 58.9888 30.6542C58.4854 31.2033 58.179 31.9409 58.0696 32.8671H63.3963V32.7589C63.3689 31.8937 63.1255 31.1894 62.6658 30.6459C62.2062 30.1024 61.6043 29.8306 60.8601 29.8306Z" fill="white"/><path d="M69.5685 37.4758C70.2524 37.4758 70.8242 37.2817 71.2838 36.8935C71.7489 36.4997 72.0006 35.9923 72.039 35.3711H72.9828C72.9555 35.9202 72.7858 36.4221 72.474 36.8769C72.1621 37.3261 71.7462 37.6783 71.2264 37.9334C70.712 38.1885 70.1594 38.3161 69.5685 38.3161C68.403 38.3161 67.4782 37.9057 66.7943 37.0849C66.1158 36.264 65.7765 35.1604 65.7765 33.7739V33.4744C65.7765 32.587 65.9297 31.8022 66.2362 31.1201C66.5426 30.4379 66.9803 29.911 67.5494 29.5394C68.1239 29.1679 68.7942 28.9821 69.5602 28.9821C70.5342 28.9821 71.3358 29.276 71.9651 29.8639C72.5998 30.4518 72.9391 31.2254 72.9828 32.1849H72.039C71.9952 31.4806 71.7435 30.9121 71.2838 30.4795C70.8297 30.0469 70.2552 29.8306 69.5602 29.8306C68.6738 29.8306 67.9844 30.1551 67.4919 30.8039C67.0049 31.4528 66.7614 32.3624 66.7614 33.5326V33.8238C66.7614 34.9718 67.0049 35.8675 67.4919 36.5108C67.9844 37.1542 68.6766 37.4758 69.5685 37.4758Z" fill="white"/><path d="M77.062 33.6158L75.9376 34.7139V38.1497H74.9527V25.3716H75.9376V33.5492L76.865 32.5343L80.263 29.1484H81.5024L77.7351 32.9419L81.8307 38.1497H80.657L77.062 33.6158Z" fill="white"/><path d="M82.6514 33.516C82.6514 32.6508 82.8156 31.8716 83.1439 31.1783C83.4777 30.485 83.9455 29.9471 84.5474 29.5644C85.1548 29.1762 85.8415 28.9821 86.6075 28.9821C87.7894 28.9821 88.747 29.4036 89.4802 30.2466C90.2134 31.084 90.58 32.196 90.58 33.5825V33.7905C90.58 34.6612 90.4131 35.446 90.0793 36.1448C89.751 36.8381 89.2859 37.3732 88.684 37.7504C88.0821 38.1275 87.3954 38.3161 86.6239 38.3161C85.4475 38.3161 84.4899 37.8973 83.7512 37.0599C83.018 36.2169 82.6514 35.1021 82.6514 33.7156V33.516ZM83.6363 33.7905C83.6363 34.8664 83.9099 35.751 84.4571 36.4443C85.0098 37.132 85.732 37.4758 86.6239 37.4758C87.5103 37.4758 88.2271 37.132 88.7743 36.4443C89.327 35.751 89.6033 34.8387 89.6033 33.7073V33.516C89.6033 32.8283 89.4774 32.1988 89.2257 31.6275C88.974 31.0563 88.6211 30.6154 88.167 30.3048C87.7128 29.9887 87.193 29.8306 86.6075 29.8306C85.732 29.8306 85.018 30.18 84.4653 30.8788C83.9127 31.5721 83.6363 32.4816 83.6363 33.6075V33.7905Z" fill="white"/><path d="M98.328 37.01C97.7371 37.8807 96.7932 38.3161 95.4964 38.3161C94.5498 38.3161 93.8302 38.0388 93.3378 37.4842C92.8453 36.924 92.5936 36.0977 92.5827 35.0051V29.1484H93.5594V34.8803C93.5594 36.594 94.2433 37.4509 95.6113 37.4509C97.0339 37.4509 97.934 36.8547 98.3116 35.6623V29.1484H99.2965V38.1497H98.3444L98.328 37.01Z" fill="white"/><path d="M103.384 26.8441V29.1484H105.222V29.9637H103.384V35.9618C103.384 36.4609 103.471 36.8325 103.647 37.0765C103.827 37.3206 104.125 37.4426 104.541 37.4426C104.705 37.4426 104.971 37.4148 105.337 37.3594L105.378 38.1747C105.121 38.2689 104.771 38.3161 104.328 38.3161C103.655 38.3161 103.165 38.1192 102.859 37.7254C102.552 37.3261 102.399 36.741 102.399 35.9701V29.9637H100.766V29.1484H102.399V26.8441H103.384Z" fill="white"/><path d="M116.664 35.8619C116.664 35.3683 116.467 34.9718 116.073 34.6723C115.684 34.3728 115.096 34.1399 114.308 33.9735C113.52 33.8016 112.908 33.6075 112.47 33.3912C112.037 33.1693 111.715 32.9004 111.501 32.5842C111.293 32.2681 111.189 31.8854 111.189 31.4362C111.189 30.7263 111.482 30.1412 112.068 29.6809C112.653 29.215 113.403 28.9821 114.316 28.9821C115.307 28.9821 116.1 29.2316 116.697 29.7308C117.299 30.2244 117.6 30.8705 117.6 31.6691H116.615C116.615 31.1423 116.396 30.7041 115.958 30.3547C115.526 30.0053 114.979 29.8306 114.316 29.8306C113.671 29.8306 113.151 29.9776 112.757 30.2715C112.369 30.5599 112.174 30.937 112.174 31.4029C112.174 31.8521 112.336 32.2015 112.659 32.4511C112.987 32.6951 113.581 32.9198 114.44 33.125C115.304 33.3302 115.95 33.5492 116.377 33.7822C116.809 34.0151 117.129 34.2952 117.337 34.6224C117.545 34.9496 117.649 35.3462 117.649 35.812C117.649 36.5718 117.345 37.1791 116.738 37.6339C116.136 38.0887 115.348 38.3161 114.374 38.3161C113.34 38.3161 112.5 38.0637 111.854 37.559C111.214 37.0488 110.894 36.4055 110.894 35.629H111.879C111.917 36.2113 112.158 36.6661 112.601 36.9933C113.05 37.315 113.641 37.4758 114.374 37.4758C115.058 37.4758 115.611 37.3233 116.032 37.0183C116.453 36.7133 116.664 36.3278 116.664 35.8619Z" fill="white"/><path d="M123.304 38.3161C122.549 38.3161 121.865 38.1275 121.252 37.7504C120.645 37.3732 120.171 36.8491 119.832 36.1781C119.493 35.5015 119.323 34.7444 119.323 33.907V33.5492C119.323 32.6841 119.487 31.9048 119.816 31.2116C120.149 30.5183 120.612 29.9748 121.203 29.581C121.794 29.1817 122.434 28.9821 123.123 28.9821C124.201 28.9821 125.055 29.3564 125.684 30.1051C126.319 30.8483 126.636 31.866 126.636 33.1582V33.7156H120.3V33.907C120.3 34.9274 120.587 35.7788 121.162 36.4609C121.742 37.1375 122.469 37.4758 123.345 37.4758C123.87 37.4758 124.333 37.3788 124.732 37.1847C125.137 36.9906 125.503 36.68 125.832 36.2529L126.447 36.7271C125.725 37.7864 124.677 38.3161 123.304 38.3161ZM123.123 29.8306C122.385 29.8306 121.761 30.1051 121.252 30.6542C120.749 31.2033 120.442 31.9409 120.333 32.8671H125.659V32.7589C125.632 31.8937 125.389 31.1894 124.929 30.6459C124.469 30.1024 123.867 29.8306 123.123 29.8306Z" fill="white"/><path d="M128.155 33.5659C128.155 32.1572 128.461 31.0424 129.074 30.2216C129.692 29.3952 130.529 28.9821 131.585 28.9821C132.795 28.9821 133.714 29.4701 134.343 30.4462L134.392 29.1484H135.312V37.9667C135.312 39.1258 134.992 40.0437 134.351 40.7203C133.711 41.3969 132.844 41.7352 131.75 41.7352C131.131 41.7352 130.54 41.5938 129.977 41.3109C129.419 41.0336 128.978 40.6621 128.655 40.1962L129.205 39.5972C129.9 40.4624 130.726 40.895 131.684 40.895C132.505 40.895 133.145 40.6482 133.604 40.1546C134.064 39.6665 134.302 38.9871 134.318 38.1164V36.985C133.689 37.8724 132.773 38.3161 131.569 38.3161C130.54 38.3161 129.714 37.9001 129.09 37.0682C128.466 36.2363 128.155 35.1132 128.155 33.699V33.5659ZM129.148 33.7406C129.148 34.8886 129.375 35.7954 129.829 36.4609C130.283 37.1209 130.923 37.4509 131.75 37.4509C132.959 37.4509 133.815 36.9018 134.318 35.8037V31.6192C134.089 31.0424 133.758 30.6043 133.325 30.3048C132.893 29.9998 132.373 29.8472 131.766 29.8472C130.94 29.8472 130.297 30.1772 129.837 30.8372C129.378 31.4917 129.148 32.4594 129.148 33.7406Z" fill="white"/><path d="M143.585 37.01C142.994 37.8807 142.05 38.3161 140.753 38.3161C139.807 38.3161 139.087 38.0388 138.595 37.4842C138.102 36.924 137.851 36.0977 137.84 35.0051V29.1484H138.816V34.8803C138.816 36.594 139.5 37.4509 140.868 37.4509C142.291 37.4509 143.191 36.8547 143.569 35.6623V29.1484H144.553V38.1497H143.601L143.585 37.01Z" fill="white"/><path d="M151.218 29.997C151.01 29.9582 150.788 29.9388 150.553 29.9388C149.94 29.9388 149.421 30.1135 148.994 30.4629C148.572 30.8067 148.271 31.3086 148.091 31.9686V38.1497H147.114V29.1484H148.075L148.091 30.5793C148.611 29.5145 149.445 28.9821 150.594 28.9821C150.868 28.9821 151.084 29.0181 151.243 29.0902L151.218 29.997Z" fill="white"/><path d="M152.072 33.516C152.072 32.6508 152.236 31.8716 152.564 31.1783C152.898 30.485 153.366 29.9471 153.968 29.5644C154.575 29.1762 155.262 28.9821 156.028 28.9821C157.21 28.9821 158.167 29.4036 158.9 30.2466C159.634 31.084 160 32.196 160 33.5825V33.7905C160 34.6612 159.833 35.446 159.5 36.1448C159.171 36.8381 158.706 37.3732 158.104 37.7504C157.502 38.1275 156.816 38.3161 156.044 38.3161C154.868 38.3161 153.91 37.8973 153.171 37.0599C152.438 36.2169 152.072 35.1021 152.072 33.7156V33.516ZM153.057 33.7905C153.057 34.8664 153.33 35.751 153.877 36.4443C154.43 37.132 155.152 37.4758 156.044 37.4758C156.931 37.4758 157.647 37.132 158.195 36.4443C158.747 35.751 159.023 34.8387 159.023 33.7073V33.516C159.023 32.8283 158.898 32.1988 158.646 31.6275C158.394 31.0563 158.041 30.6154 157.587 30.3048C157.133 29.9887 156.613 29.8306 156.028 29.8306C155.152 29.8306 154.438 30.18 153.886 30.8788C153.333 31.5721 153.057 32.4816 153.057 33.6075V33.7905Z" fill="white"/><path d="M45.4125 15.8935C45.4125 15.4888 45.2421 15.1807 44.9012 14.969C44.5666 14.7573 44.0078 14.5705 43.225 14.4087C42.4421 14.2468 41.7887 14.0413 41.2647 13.7923C40.1156 13.2444 39.5411 12.4506 39.5411 11.4109C39.5411 10.5393 39.9136 9.81086 40.6586 9.22563C41.4036 8.6404 42.3506 8.34778 43.4996 8.34778C44.7244 8.34778 45.7124 8.64662 46.4637 9.24431C47.2213 9.84199 47.6001 10.6171 47.6001 11.5697H45.2989C45.2989 11.1339 45.1348 10.7728 44.8065 10.4864C44.4782 10.1938 44.0425 10.0474 43.4996 10.0474C42.9945 10.0474 42.581 10.1626 42.259 10.393C41.9434 10.6233 41.7855 10.9315 41.7855 11.3175C41.7855 11.6662 41.9339 11.937 42.2306 12.13C42.5273 12.323 43.1271 12.5191 44.0299 12.7183C44.9327 12.9113 45.6398 13.1448 46.1512 13.4187C46.6689 13.6865 47.0509 14.0102 47.2971 14.39C47.5496 14.7698 47.6759 15.2305 47.6759 15.7721C47.6759 16.6811 47.2939 17.4189 46.53 17.9854C45.7661 18.5457 44.7654 18.8259 43.528 18.8259C42.6883 18.8259 41.9402 18.6765 41.2836 18.3776C40.627 18.0788 40.1156 17.6679 39.7495 17.1449C39.3833 16.622 39.2002 16.0585 39.2002 15.4546H41.4351C41.4667 15.99 41.6719 16.404 42.0507 16.6967C42.4295 16.9831 42.9314 17.1262 43.5564 17.1262C44.1625 17.1262 44.6234 17.0142 44.939 16.79C45.2547 16.5597 45.4125 16.2609 45.4125 15.8935Z" fill="white"/><path d="M52.1363 18.6391H49.8351V8.53456H52.1363V18.6391ZM49.693 5.91036C49.693 5.56171 49.8035 5.27221 50.0245 5.04185C50.2517 4.81149 50.5737 4.69632 50.9904 4.69632C51.4071 4.69632 51.7291 4.81149 51.9564 5.04185C52.1836 5.27221 52.2973 5.56171 52.2973 5.91036C52.2973 6.25278 52.1836 6.53917 51.9564 6.76953C51.7291 6.99366 51.4071 7.10572 50.9904 7.10572C50.5737 7.10572 50.2517 6.99366 50.0245 6.76953C49.8035 6.53917 49.693 6.25278 49.693 5.91036Z" fill="white"/><path d="M57.5342 6.07846V8.53456H59.343V10.2155H57.5342V15.8562C57.5342 16.2422 57.61 16.5223 57.7615 16.6967C57.9193 16.8648 58.1971 16.9488 58.5949 16.9488C58.86 16.9488 59.1283 16.9177 59.3998 16.8554V18.6111C58.8758 18.7543 58.3707 18.8259 57.8846 18.8259C56.1169 18.8259 55.233 17.864 55.233 15.9402V10.2155H53.5473V8.53456H55.233V6.07846H57.5342Z" fill="white"/><path d="M65.6216 18.8259C64.1633 18.8259 62.9795 18.3745 62.0704 17.4718C61.1676 16.5628 60.7162 15.355 60.7162 13.8483V13.5682C60.7162 12.5596 60.9119 11.6599 61.3033 10.8693C61.701 10.0723 62.2566 9.45287 62.97 9.01084C63.6834 8.5688 64.4789 8.34778 65.3565 8.34778C66.7517 8.34778 67.8282 8.78671 68.5858 9.66455C69.3497 10.5424 69.7316 11.7845 69.7316 13.3907V14.3059H63.0363C63.1058 15.1402 63.3867 15.8001 63.8792 16.2858C64.3779 16.7714 65.0029 17.0142 65.7542 17.0142C66.8086 17.0142 67.6672 16.5939 68.3301 15.7534L69.5707 16.9208C69.1603 17.5247 68.611 17.9948 67.9229 18.331C67.241 18.6609 66.4739 18.8259 65.6216 18.8259ZM65.347 10.1688C64.7157 10.1688 64.2043 10.3868 63.8129 10.8226C63.4277 11.2584 63.1815 11.8654 63.0742 12.6436H67.4588V12.4755C67.4083 11.716 67.2031 11.1432 66.8433 10.7572C66.4834 10.365 65.9847 10.1688 65.347 10.1688Z" fill="white"/><path d="M79.9688 15.7628L82.1374 8.53456H84.5144L80.9631 18.6391H78.9649L75.3853 8.53456H77.7717L79.9688 15.7628Z" fill="white"/><path d="M90.3385 18.8259C88.8801 18.8259 87.6963 18.3745 86.7872 17.4718C85.8844 16.5628 85.433 15.355 85.433 13.8483V13.5682C85.433 12.5596 85.6287 11.6599 86.0201 10.8693C86.4179 10.0723 86.9735 9.45287 87.6869 9.01084C88.4003 8.5688 89.1958 8.34778 90.0733 8.34778C91.4686 8.34778 92.545 8.78671 93.3026 9.66455C94.0665 10.5424 94.4485 11.7845 94.4485 13.3907V14.3059H87.7532C87.8226 15.1402 88.1035 15.8001 88.596 16.2858C89.0947 16.7714 89.7198 17.0142 90.4711 17.0142C91.5254 17.0142 92.384 16.5939 93.0469 15.7534L94.2875 16.9208C93.8771 17.5247 93.3279 17.9948 92.6397 18.331C91.9579 18.6609 91.1908 18.8259 90.3385 18.8259ZM90.0639 10.1688C89.4325 10.1688 88.9211 10.3868 88.5297 10.8226C88.1446 11.2584 87.8984 11.8654 87.791 12.6436H92.1757V12.4755C92.1252 11.716 91.92 11.1432 91.5601 10.7572C91.2003 10.365 90.7015 10.1688 90.0639 10.1688Z" fill="white"/><path d="M101.608 10.6078C101.305 10.558 100.992 10.5331 100.67 10.5331C99.616 10.5331 98.9057 10.9315 98.5395 11.7284V18.6391H96.2383V8.53456H98.4354L98.4922 9.66455C99.0478 8.78671 99.818 8.34778 100.803 8.34778C101.131 8.34778 101.403 8.39136 101.617 8.47853L101.608 10.6078Z" fill="white"/><path d="M105.51 18.6391H103.208V8.53456H105.51V18.6391ZM103.066 5.91036C103.066 5.56171 103.177 5.27221 103.398 5.04185C103.625 4.81149 103.947 4.69632 104.364 4.69632C104.78 4.69632 105.102 4.81149 105.33 5.04185C105.557 5.27221 105.67 5.56171 105.67 5.91036C105.67 6.25278 105.557 6.53917 105.33 6.76953C105.102 6.99366 104.78 7.10572 104.364 7.10572C103.947 7.10572 103.625 6.99366 103.398 6.76953C103.177 6.53917 103.066 6.25278 103.066 5.91036Z" fill="white"/><path d="M108.635 18.6391V10.2155H107.072V8.53456H108.635V7.84349C108.641 7.0528 108.811 6.37418 109.146 5.80763C109.481 5.24108 109.954 4.81461 110.567 4.52822C111.179 4.24183 111.914 4.09863 112.773 4.09863C113.278 4.09863 113.761 4.15155 114.222 4.25739C114.689 4.36323 115.172 4.49709 115.671 4.65896L115.32 6.53606C114.449 6.23722 113.654 6.0878 112.934 6.0878C112.233 6.0878 111.725 6.24033 111.409 6.5454C111.094 6.84424 110.936 7.29561 110.936 7.89952V8.53456H112.953V10.2155H110.936V18.6391H108.635ZM116.76 18.6391H114.459V8.53456H116.76V18.6391Z" fill="white"/><path d="M123.522 17.0142C124.096 17.0142 124.573 16.8492 124.952 16.5192C125.33 16.1893 125.532 15.7815 125.558 15.2958H127.726C127.701 15.9247 127.502 16.513 127.13 17.0609C126.757 17.6025 126.252 18.0321 125.614 18.3496C124.977 18.6671 124.289 18.8259 123.55 18.8259C122.117 18.8259 120.98 18.3683 120.141 17.4531C119.301 16.5379 118.881 15.2741 118.881 13.6616V13.4281C118.881 11.8903 119.298 10.6607 120.131 9.73926C120.965 8.81161 122.101 8.34778 123.54 8.34778C124.759 8.34778 125.75 8.69954 126.514 9.40307C127.284 10.1004 127.688 11.0187 127.726 12.158H125.558C125.532 11.579 125.33 11.1027 124.952 10.7292C124.579 10.3556 124.102 10.1688 123.522 10.1688C122.777 10.1688 122.202 10.4366 121.798 10.972C121.394 11.5012 121.189 12.3074 121.182 13.3907V13.7549C121.182 14.8507 121.381 15.6694 121.779 16.211C122.183 16.7465 122.764 17.0142 123.522 17.0142Z" fill="white"/><path d="M135.586 18.6391C135.485 18.4461 135.397 18.1317 135.321 17.6959C134.589 18.4492 133.692 18.8259 132.632 18.8259C131.603 18.8259 130.763 18.5364 130.113 17.9574C129.462 17.3784 129.137 16.6624 129.137 15.8095C129.137 14.7324 129.541 13.9075 130.349 13.3347C131.164 12.7557 132.326 12.4662 133.834 12.4662H135.245V11.8031C135.245 11.2802 135.097 10.863 134.8 10.5517C134.504 10.2342 134.052 10.0755 133.446 10.0755C132.922 10.0755 132.493 10.2062 132.158 10.4677C131.824 10.7229 131.656 11.0498 131.656 11.4483H129.355C129.355 10.8942 129.541 10.3774 129.914 9.89802C130.286 9.41241 130.791 9.03263 131.429 8.75869C132.073 8.48475 132.79 8.34778 133.579 8.34778C134.778 8.34778 135.735 8.64662 136.448 9.24431C137.162 9.83576 137.528 10.67 137.547 11.7471V16.3044C137.547 17.2134 137.676 17.9387 137.935 18.4804V18.6391H135.586ZM133.058 17.0048C133.512 17.0048 133.939 16.8959 134.336 16.678C134.74 16.4601 135.043 16.1675 135.245 15.8001V13.895H134.005C133.153 13.895 132.512 14.0413 132.082 14.3339C131.653 14.6266 131.439 15.0406 131.439 15.576C131.439 16.0118 131.584 16.3605 131.874 16.622C132.171 16.8772 132.565 17.0048 133.058 17.0048Z" fill="white"/><path d="M139.526 13.5121C139.526 11.9557 139.892 10.7074 140.624 9.76728C141.357 8.82095 142.339 8.34778 143.57 8.34778C144.656 8.34778 145.533 8.72133 146.202 9.46844V4.29475H148.504V18.6391H146.42L146.306 17.5932C145.618 18.415 144.7 18.8259 143.551 18.8259C142.351 18.8259 141.379 18.3496 140.634 17.3971C139.895 16.4445 139.526 15.1495 139.526 13.5121ZM141.827 13.7082C141.827 14.7355 142.026 15.5387 142.424 16.1177C142.828 16.6904 143.399 16.9768 144.138 16.9768C145.079 16.9768 145.767 16.5628 146.202 15.7348V11.4202C145.779 10.6109 145.097 10.2062 144.157 10.2062C143.412 10.2062 142.837 10.4988 142.433 11.084C142.029 11.6631 141.827 12.5378 141.827 13.7082Z" fill="white"/><path d="M150.473 13.4935C150.473 12.5035 150.672 11.6132 151.07 10.8226C151.468 10.0257 152.026 9.41552 152.746 8.99216C153.466 8.56257 154.293 8.34778 155.227 8.34778C156.61 8.34778 157.731 8.78671 158.589 9.66455C159.454 10.5424 159.921 11.7066 159.991 13.1573L160 13.6896C160 14.6857 159.804 15.576 159.413 16.3605C159.028 17.1449 158.472 17.7519 157.746 18.1815C157.027 18.6111 156.193 18.8259 155.246 18.8259C153.8 18.8259 152.642 18.3527 151.771 17.4064C150.906 16.4539 150.473 15.1869 150.473 13.6055V13.4935ZM152.775 13.6896C152.775 14.7293 152.992 15.5449 153.428 16.1363C153.864 16.7216 154.47 17.0142 155.246 17.0142C156.023 17.0142 156.626 16.7153 157.055 16.1177C157.491 15.52 157.708 14.6452 157.708 13.4935C157.708 12.4724 157.484 11.6631 157.036 11.0654C156.594 10.4677 155.991 10.1688 155.227 10.1688C154.476 10.1688 153.879 10.4646 153.437 11.056C152.996 11.6413 152.775 12.5191 152.775 13.6896Z" fill="white"/></symbol>
</svg>